<svg width="197" height="31" viewBox="0 0 197 31" fill="none" xmlns="http://www.w3.org/2000/svg">
<path d="M15.1012 12.5475L12.9625 10.925L1 20L12.9625 29.075L15.1012 27.4525L5.2775 20L15.1012 12.5475Z" fill="white"/>
<path d="M14.8988 18.4525L17.0375 20.075L29 11L17.0375 1.925L14.8988 3.5475L24.7225 11L14.8988 18.4525Z" fill="white"/>
<path d="M36.1186 12.8182H37.983L41.2244 20.733H41.3438L44.5852 12.8182H46.4496V23H44.9879V15.6321H44.8935L41.8906 22.9851H40.6776L37.6747 15.6271H37.5803V23H36.1186V12.8182ZM49.5034 25.8636C49.2813 25.8636 49.0791 25.8454 48.8968 25.8089C48.7145 25.7758 48.5787 25.7393 48.4892 25.6996L48.8471 24.4815C49.1189 24.5545 49.3609 24.5859 49.573 24.576C49.7851 24.5661 49.9724 24.4865 50.1348 24.3374C50.3005 24.1882 50.4463 23.9446 50.5723 23.6065L50.7562 23.0994L47.9622 15.3636H49.5531L51.487 21.2898H51.5666L53.5005 15.3636H55.0964L51.9494 24.0192C51.8036 24.4169 51.618 24.7533 51.3926 25.0284C51.1672 25.3068 50.8987 25.5156 50.5872 25.6548C50.2756 25.794 49.9144 25.8636 49.5034 25.8636ZM57.9799 12.8182V23H56.4934V12.8182H57.9799ZM61.4663 12.8182V23H59.9798V12.8182H61.4663ZM66.7573 23.1541C66.0049 23.1541 65.3569 22.9934 64.8134 22.6719C64.2731 22.3471 63.8555 21.8913 63.5605 21.3047C63.2689 20.7147 63.123 20.0237 63.123 19.2315C63.123 18.4493 63.2689 17.7599 63.5605 17.1634C63.8555 16.5668 64.2665 16.1011 64.7935 15.7663C65.3238 15.4316 65.9436 15.2642 66.6529 15.2642C67.0837 15.2642 67.5014 15.3355 67.9057 15.478C68.3101 15.6205 68.673 15.8442 68.9945 16.1491C69.316 16.4541 69.5695 16.8501 69.7551 17.3374C69.9408 17.8213 70.0336 18.4096 70.0336 19.1023V19.6293H63.9632V18.5156H68.5769C68.5769 18.1245 68.4973 17.7782 68.3382 17.4766C68.1792 17.1716 67.9554 16.9313 67.6671 16.7557C67.382 16.58 67.0473 16.4922 66.6628 16.4922C66.2452 16.4922 65.8806 16.5949 65.5691 16.8004C65.2608 17.0026 65.0222 17.2678 64.8532 17.5959C64.6874 17.9207 64.6046 18.2737 64.6046 18.6548V19.5249C64.6046 20.0353 64.6941 20.4695 64.873 20.8274C65.0553 21.1854 65.3089 21.4588 65.6337 21.6477C65.9585 21.8333 66.338 21.9261 66.7722 21.9261C67.0539 21.9261 67.3108 21.8864 67.5428 21.8068C67.7748 21.724 67.9753 21.6013 68.1444 21.4389C68.3134 21.2765 68.4426 21.076 68.5321 20.8374L69.9391 21.0909C69.8264 21.5052 69.6242 21.8681 69.3326 22.1797C69.0442 22.4879 68.6813 22.7282 68.2438 22.9006C67.8096 23.0696 67.3141 23.1541 66.7573 23.1541ZM73.1694 18.4659V23H71.6829V15.3636H73.1097V16.6065H73.2042C73.3799 16.2022 73.6549 15.8774 74.0295 15.6321C74.4073 15.3868 74.8829 15.2642 75.4563 15.2642C75.9767 15.2642 76.4324 15.3736 76.8235 15.5923C77.2146 15.8078 77.5179 16.1293 77.7333 16.5568C77.9487 16.9844 78.0565 17.513 78.0565 18.1428V23H76.57V18.3217C76.57 17.7682 76.4258 17.3357 76.1374 17.0241C75.8491 16.7093 75.453 16.5518 74.9492 16.5518C74.6045 16.5518 74.2979 16.6264 74.0295 16.7756C73.7643 16.9247 73.5539 17.1435 73.3981 17.4318C73.2456 17.7169 73.1694 18.0616 73.1694 18.4659ZM82.2724 23.169C81.7885 23.169 81.351 23.0795 80.9599 22.9006C80.5688 22.7183 80.2589 22.4548 80.0302 22.1101C79.8048 21.7654 79.6921 21.3428 79.6921 20.8423C79.6921 20.4115 79.775 20.0568 79.9407 19.7784C80.1064 19.5 80.3301 19.2796 80.6119 19.1172C80.8936 18.9548 81.2085 18.8321 81.5565 18.7493C81.9045 18.6664 82.2591 18.6035 82.6204 18.5604C83.0778 18.5073 83.449 18.4643 83.734 18.4311C84.0191 18.3946 84.2262 18.3366 84.3555 18.2571C84.4847 18.1776 84.5494 18.0483 84.5494 17.8693V17.8345C84.5494 17.4003 84.4267 17.0639 84.1815 16.8253C83.9395 16.5866 83.5782 16.4673 83.0977 16.4673C82.5972 16.4673 82.2028 16.5784 81.9144 16.8004C81.6294 17.0192 81.4322 17.2628 81.3228 17.5312L79.9258 17.2131C80.0915 16.7491 80.3335 16.3745 80.6516 16.0895C80.9731 15.8011 81.3427 15.5923 81.7603 15.4631C82.1779 15.3305 82.6171 15.2642 83.0778 15.2642C83.3827 15.2642 83.7058 15.3007 84.0472 15.3736C84.3919 15.4432 84.7134 15.5724 85.0117 15.7614C85.3133 15.9503 85.5603 16.2204 85.7525 16.5717C85.9447 16.9197 86.0408 17.3722 86.0408 17.929V23H84.5891V21.956H84.5295C84.4334 22.1482 84.2892 22.3371 84.0969 22.5227C83.9047 22.7083 83.6578 22.8625 83.3562 22.9851C83.0546 23.1077 82.6933 23.169 82.2724 23.169ZM82.5955 21.9759C83.0065 21.9759 83.3578 21.8946 83.6495 21.7322C83.9445 21.5698 84.1682 21.3577 84.3207 21.0959C84.4764 20.8307 84.5543 20.5473 84.5543 20.2457V19.2614C84.5013 19.3144 84.3986 19.3641 84.2461 19.4105C84.0969 19.4536 83.9263 19.4917 83.734 19.5249C83.5418 19.5547 83.3545 19.5829 83.1722 19.6094C82.9899 19.6326 82.8375 19.6525 82.7148 19.669C82.4265 19.7055 82.163 19.7668 81.9244 19.853C81.689 19.9392 81.5001 20.0634 81.3576 20.2259C81.2184 20.3849 81.1488 20.5971 81.1488 20.8622C81.1488 21.2301 81.2847 21.5085 81.5565 21.6974C81.8282 21.883 82.1746 21.9759 82.5955 21.9759ZM91.8452 23V12.8182H93.3814V21.6776H97.995V23H91.8452ZM104.466 19.8331V15.3636H105.957V23H104.495V21.6776H104.416C104.24 22.0852 103.958 22.425 103.571 22.6967C103.186 22.9652 102.707 23.0994 102.134 23.0994C101.643 23.0994 101.209 22.9917 100.831 22.7763C100.457 22.5575 100.162 22.2344 99.9464 21.8068C99.7343 21.3793 99.6282 20.8506 99.6282 20.2209V15.3636H101.115V20.0419C101.115 20.5623 101.259 20.9766 101.547 21.2848C101.836 21.593 102.21 21.7472 102.671 21.7472C102.949 21.7472 103.226 21.6776 103.501 21.5384C103.779 21.3991 104.01 21.1887 104.192 20.907C104.378 20.6252 104.469 20.2673 104.466 19.8331ZM111.171 23.1541C110.432 23.1541 109.796 22.9867 109.262 22.652C108.732 22.3139 108.324 21.8482 108.039 21.255C107.754 20.6617 107.611 19.9822 107.611 19.2166C107.611 18.4411 107.757 17.7566 108.049 17.1634C108.34 16.5668 108.751 16.1011 109.282 15.7663C109.812 15.4316 110.437 15.2642 111.156 15.2642C111.736 15.2642 112.253 15.3719 112.707 15.5874C113.161 15.7995 113.528 16.0978 113.806 16.4822C114.088 16.8667 114.255 17.3158 114.308 17.8295H112.861C112.782 17.4716 112.599 17.1634 112.314 16.9048C112.033 16.6463 111.655 16.517 111.181 16.517C110.767 16.517 110.404 16.6264 110.092 16.8452C109.784 17.0606 109.544 17.3688 109.371 17.7699C109.199 18.1676 109.113 18.6383 109.113 19.1818C109.113 19.7386 109.197 20.2192 109.366 20.6236C109.535 21.0279 109.774 21.3411 110.082 21.5632C110.394 21.7853 110.76 21.8963 111.181 21.8963C111.463 21.8963 111.718 21.8449 111.947 21.7422C112.179 21.6361 112.372 21.4853 112.528 21.2898C112.687 21.0942 112.798 20.8589 112.861 20.5838H114.308C114.255 21.0777 114.094 21.5185 113.826 21.9062C113.557 22.294 113.198 22.599 112.747 22.821C112.3 23.0431 111.774 23.1541 111.171 23.1541ZM119.189 23.1541C118.437 23.1541 117.789 22.9934 117.245 22.6719C116.705 22.3471 116.287 21.8913 115.992 21.3047C115.701 20.7147 115.555 20.0237 115.555 19.2315C115.555 18.4493 115.701 17.7599 115.992 17.1634C116.287 16.5668 116.698 16.1011 117.225 15.7663C117.755 15.4316 118.375 15.2642 119.085 15.2642C119.515 15.2642 119.933 15.3355 120.337 15.478C120.742 15.6205 121.105 15.8442 121.426 16.1491C121.748 16.4541 122.001 16.8501 122.187 17.3374C122.372 17.8213 122.465 18.4096 122.465 19.1023V19.6293H116.395V18.5156H121.009C121.009 18.1245 120.929 17.7782 120.77 17.4766C120.611 17.1716 120.387 16.9313 120.099 16.7557C119.814 16.58 119.479 16.4922 119.094 16.4922C118.677 16.4922 118.312 16.5949 118.001 16.8004C117.692 17.0026 117.454 17.2678 117.285 17.5959C117.119 17.9207 117.036 18.2737 117.036 18.6548V19.5249C117.036 20.0353 117.126 20.4695 117.305 20.8274C117.487 21.1854 117.741 21.4588 118.065 21.6477C118.39 21.8333 118.77 21.9261 119.204 21.9261C119.486 21.9261 119.742 21.8864 119.974 21.8068C120.206 21.724 120.407 21.6013 120.576 21.4389C120.745 21.2765 120.874 21.076 120.964 20.8374L122.371 21.0909C122.258 21.5052 122.056 21.8681 121.764 22.1797C121.476 22.4879 121.113 22.7282 120.675 22.9006C120.241 23.0696 119.746 23.1541 119.189 23.1541ZM125.601 18.4659V23H124.115V15.3636H125.541V16.6065H125.636C125.811 16.2022 126.087 15.8774 126.461 15.6321C126.839 15.3868 127.315 15.2642 127.888 15.2642C128.408 15.2642 128.864 15.3736 129.255 15.5923C129.646 15.8078 129.95 16.1293 130.165 16.5568C130.38 16.9844 130.488 17.513 130.488 18.1428V23H129.002V18.3217C129.002 17.7682 128.857 17.3357 128.569 17.0241C128.281 16.7093 127.885 16.5518 127.381 16.5518C127.036 16.5518 126.73 16.6264 126.461 16.7756C126.196 16.9247 125.985 17.1435 125.83 17.4318C125.677 17.7169 125.601 18.0616 125.601 18.4659ZM134.704 23.169C134.22 23.169 133.783 23.0795 133.392 22.9006C133 22.7183 132.691 22.4548 132.462 22.1101C132.236 21.7654 132.124 21.3428 132.124 20.8423C132.124 20.4115 132.207 20.0568 132.372 19.7784C132.538 19.5 132.762 19.2796 133.044 19.1172C133.325 18.9548 133.64 18.8321 133.988 18.7493C134.336 18.6664 134.691 18.6035 135.052 18.5604C135.509 18.5073 135.881 18.4643 136.166 18.4311C136.451 18.3946 136.658 18.3366 136.787 18.2571C136.916 18.1776 136.981 18.0483 136.981 17.8693V17.8345C136.981 17.4003 136.858 17.0639 136.613 16.8253C136.371 16.5866 136.01 16.4673 135.529 16.4673C135.029 16.4673 134.634 16.5784 134.346 16.8004C134.061 17.0192 133.864 17.2628 133.754 17.5312L132.357 17.2131C132.523 16.7491 132.765 16.3745 133.083 16.0895C133.405 15.8011 133.774 15.5923 134.192 15.4631C134.61 15.3305 135.049 15.2642 135.509 15.2642C135.814 15.2642 136.137 15.3007 136.479 15.3736C136.824 15.4432 137.145 15.5724 137.443 15.7614C137.745 15.9503 137.992 16.2204 138.184 16.5717C138.376 16.9197 138.472 17.3722 138.472 17.929V23H137.021V21.956H136.961C136.865 22.1482 136.721 22.3371 136.529 22.5227C136.336 22.7083 136.089 22.8625 135.788 22.9851C135.486 23.1077 135.125 23.169 134.704 23.169ZM135.027 21.9759C135.438 21.9759 135.789 21.8946 136.081 21.7322C136.376 21.5698 136.6 21.3577 136.752 21.0959C136.908 20.8307 136.986 20.5473 136.986 20.2457V19.2614C136.933 19.3144 136.83 19.3641 136.678 19.4105C136.529 19.4536 136.358 19.4917 136.166 19.5249C135.973 19.5547 135.786 19.5829 135.604 19.6094C135.422 19.6326 135.269 19.6525 135.146 19.669C134.858 19.7055 134.595 19.7668 134.356 19.853C134.121 19.9392 133.932 20.0634 133.789 20.2259C133.65 20.3849 133.58 20.5971 133.58 20.8622C133.58 21.2301 133.716 21.5085 133.988 21.6974C134.26 21.883 134.606 21.9759 135.027 21.9759Z" fill="white"/>
</svg>
